<svg width="36" height="48" viewBox="0 0 36 48" fill="none" xmlns="http://www.w3.org/2000/svg">
<path d="M5.71768 13.9496C6.2631 14.4845 6.10252 15.2558 5.90317 17.2605C5.74813 18.8237 5.86441 20.4 5.71768 21.9632C5.5128 24.1549 6.47352 30.8105 10.4548 47.7441C11.601 47.687 12.7445 47.6273 13.8907 47.5701C13.791 46.5236 13.1072 39.0449 13.5197 33.9838C13.6055 32.9347 13.7938 31.3143 15.0065 29.8912C16.0281 28.6915 17.2629 28.2371 17.5149 28.1488C17.6422 28.1046 19.6661 27.4243 21.7869 28.2371C23.1214 28.7486 24.3645 29.8003 25.5938 32.2439C28.2849 37.5881 28.2932 44.3839 28.1935 47.2248C29.5253 47.1962 30.8542 47.1676 32.1859 47.1365C32.4655 42.1013 32.6012 38.6632 32.6455 36.3183C32.6566 35.7755 32.7784 34.3291 32.5929 32.4075C32.5791 32.2647 32.5652 32.1452 32.5569 32.0673C32.2828 29.7899 32.2745 29.2862 32.3243 29.281C32.4074 29.2706 32.5818 30.6599 33.393 32.3867C33.5149 32.6438 34.4396 34.5576 34.9241 34.5057C35.1539 34.4823 35.2037 33.6358 35.2037 33.6358C35.3643 30.8079 34.6196 29.3849 34.7552 27.3931C34.8937 25.365 35.7962 24.9132 35.3117 23.968C34.7303 22.8332 32.9279 22.4982 31.4107 22.3995C31.0259 21.9684 30.3863 21.3218 29.5253 20.7194C28.8635 20.2572 28.2655 19.9533 28.0966 19.8754C27.3491 19.5223 22.6396 17.2189 17.418 18.8315C14.2672 19.8053 13.6388 20.87 12.775 20.4C10.8231 19.3353 14.533 13.4016 11.3823 8.98971C11.0307 8.49632 9.87341 6.92787 7.94643 6.63703C5.24424 6.23193 3.11238 8.65472 2.74692 9.0754C1.57578 10.4231 0.653826 12.594 1.35429 13.4302C2.17104 14.4066 4.61022 12.8641 5.71768 13.9522V13.9496Z" fill="#99582A"/>
<path d="M0.255043 7.43164C-0.113187 6.69675 -0.12426 5.66582 0.498685 5.0374C0.930593 4.60114 1.49817 4.52324 2.17372 4.42716C3.12059 4.29472 3.90411 4.44014 4.36371 4.55959C4.42739 4.04283 4.88976 0.651431 6.96347 0.0593639C7.55596 -0.109427 7.94911 0.0437838 10.5876 1.01758C14.7323 2.54449 15.4189 2.77301 15.8037 3.57541C15.9976 3.97791 16.3076 4.92314 15.5463 6.54353C16.4572 6.59807 17.7058 6.83178 18.8077 7.6212C19.5442 8.14835 19.6688 8.53267 19.6965 8.63395C20.0287 9.78952 18.5198 10.9269 18.4533 10.9737C17.9965 11.0074 17.3265 11.0412 16.5153 11.0178C15.3718 10.984 13.5778 10.9243 10.2803 9.80769C7.30401 8.80014 5.98614 7.91204 3.47498 7.96138C2.43674 7.98216 1.58953 8.15874 1.04688 8.30156C0.817078 8.15095 0.470996 7.87568 0.249504 7.43683L0.255043 7.43164Z" fill="#D4A373"/>
<mask id="mask0_145_42" style="mask-type:luminance" maskUnits="userSpaceOnUse" x="0" y="0" width="20" height="12">
<path d="M0.255043 7.43164C-0.113187 6.69675 -0.12426 5.66582 0.498685 5.0374C0.930593 4.60114 1.49817 4.52324 2.17372 4.42716C3.12059 4.29472 3.90411 4.44014 4.36371 4.55959C4.42739 4.04283 4.88976 0.651431 6.96347 0.0593639C7.55596 -0.109427 7.94911 0.0437838 10.5876 1.01758C14.7323 2.54449 15.4189 2.77301 15.8037 3.57541C15.9976 3.97791 16.3076 4.92314 15.5463 6.54353C16.4572 6.59807 17.7058 6.83178 18.8077 7.6212C19.5442 8.14835 19.6688 8.53267 19.6965 8.63395C20.0287 9.78952 18.5198 10.9269 18.4533 10.9737C17.9965 11.0074 17.3265 11.0412 16.5153 11.0178C15.3718 10.984 13.5778 10.9243 10.2803 9.80769C7.30401 8.80014 5.98614 7.91204 3.47498 7.96138C2.43674 7.98216 1.58953 8.15874 1.04688 8.30156C0.817078 8.15095 0.470996 7.87568 0.249504 7.43683L0.255043 7.43164Z" fill="white"/>
</mask>
<g mask="url(#mask0_145_42)">
<path opacity="0.09" d="M0.0777463 7.6446C-0.334782 6.8318 -0.149281 5.79049 0.313083 5.25036C1.56174 3.79097 5.9445 4.74139 8.84881 6.39035C10.6761 7.42906 10.9807 8.21848 13.9431 9.85446C15.4908 10.7088 16.5318 11.1139 16.4681 11.2879C16.3601 11.5761 13.2869 11.1061 10.1861 10.0544C7.18485 9.03388 5.85314 8.14318 3.32814 8.18213C2.28159 8.19772 1.43161 8.3717 0.88619 8.51192C0.653624 8.36131 0.302005 8.08345 0.0805134 7.6446H0.0777463Z" fill="black"/>
<path opacity="0.06" d="M0.116663 7.51735C-0.329088 6.68897 -0.190654 5.697 0.313239 5.10753C1.1023 4.18827 2.68874 4.33889 3.87372 4.45315C4.5548 4.51807 6.14677 4.7362 8.54442 5.93851C11.6564 7.49917 12.5036 8.90144 15.3885 10.1115C15.682 10.2362 16.3686 10.5166 16.3437 10.5816C16.3049 10.6828 14.5856 10.2024 13.0684 9.76097C13.4726 9.50649 14.0208 9.0988 14.5358 8.48855C15.1366 7.77444 15.4411 7.0733 15.6017 6.60588C16.1416 6.61887 16.9694 6.70716 17.8831 7.08369C19.3947 7.70692 20.2198 8.74823 20.5493 9.22085C20.2004 10.5192 19.4197 11.0022 19.1483 11.1477C18.2983 11.6047 17.3044 11.5112 15.7789 11.3658C15.4716 11.3372 14.9566 11.2749 14.1814 11.1243C12.9881 10.8906 11.9166 10.5556 10.6541 10.1219C7.52002 9.04166 6.11909 8.12241 3.49718 8.11721C2.41187 8.11721 1.53144 8.27561 0.966639 8.41064C0.722999 8.25484 0.352 7.96919 0.113896 7.52255L0.116663 7.51735Z" fill="black"/>
</g>
<path d="M3.49144 6.54355C3.14813 6.72792 3.40284 7.25767 3.05122 8.44181C2.87403 9.04166 2.72452 9.18448 2.82973 9.33769C3.08445 9.70903 4.35249 9.47013 5.14709 8.80016C5.36304 8.61838 5.79772 8.24964 5.73404 7.83415C5.68697 7.52773 5.39903 7.35115 4.8896 7.04733C4.21129 6.64223 3.78491 6.38774 3.49144 6.54615V6.54355Z" fill="#99582A"/>
<path d="M31.3137 22.3735C31.7982 21.9658 32.9915 22.4255 33.5951 22.6592C34.2873 22.9266 34.6333 23.2383 34.7358 23.3369C34.949 23.5395 35.3421 23.9134 35.4196 24.4432C35.4944 24.9443 35.2286 25.2222 35.0016 25.7987C34.7662 26.3959 34.7552 26.8867 34.7358 27.8683C34.7164 28.8629 34.877 28.8889 35.1151 31.1844C35.1455 31.4908 35.2064 32.0985 35.1898 32.8957C35.1704 33.8357 35.1594 34.4745 34.924 34.5369C34.4783 34.6537 33.512 32.6101 33.3265 32.2179C32.6399 30.7637 32.3741 29.5796 32.2994 29.2212C32.0197 27.8917 32.2191 27.8424 31.9948 26.4037C31.5961 23.8433 30.7849 22.815 31.311 22.3735H31.3137Z" fill="#432818"/>
<path d="M8.23155 9.03384C7.556 10.6646 7.74427 11.667 8.04051 12.2798C8.38936 12.9991 8.90433 13.225 9.10644 14.1002C9.28363 14.874 8.98185 15.1285 8.9154 16.1335C8.84896 17.1748 9.10644 17.9226 9.56327 19.2366C10.0782 20.7246 10.4575 21.8178 11.0473 21.8412C11.6481 21.8645 12.2101 20.7713 12.415 20.1637C12.4593 20.0312 12.57 19.6833 12.6032 18.7718C12.6448 17.6656 12.5202 17.1825 12.4925 16.4191C12.4454 15.1622 12.7251 14.9208 12.797 13.7808C12.8469 12.9913 12.797 11.828 12.2655 10.3556C11.8612 10.2258 11.4543 10.0959 11.0473 9.96349C10.1004 9.65707 9.16458 9.34805 8.23432 9.03644L8.23155 9.03384Z" fill="#432818"/>
<path d="M3.1095 9.9505C2.82433 10.0232 2.6499 10.3244 2.7385 10.5815C2.79941 10.7633 2.98768 10.9061 3.17871 10.9087C3.52756 10.9139 3.84319 10.4569 3.68814 10.1686C3.59401 9.99205 3.33653 9.89337 3.10673 9.9505H3.1095Z" fill="#432818"/>
<path d="M24.536 19.2704C22.2131 16.6606 14.5246 18.7381 14.1508 20.9349C13.8989 22.4151 16.9859 23.8693 17.1908 23.9654C19.4722 25.0171 23.2375 25.3183 24.6745 23.3162C25.4995 22.1658 25.494 20.3455 24.5388 19.2704H24.536Z" fill="#BA8847"/>
<path d="M23.531 19.1301C21.6151 16.9774 15.2777 18.6913 14.9676 20.5038C14.76 21.7243 17.3043 22.924 17.4732 23.0019C19.3559 23.8692 22.4596 24.1159 23.6445 22.467C24.3256 21.5192 24.3201 20.0182 23.531 19.1327V19.1301Z" fill="#BB9457"/>
<path d="M27.7561 47.2507C27.7976 46.5159 27.8392 45.781 27.8807 45.0435C29.409 44.9656 30.9345 44.8877 32.4628 44.8124C32.4019 45.6641 32.3382 46.5159 32.2773 47.3676C30.7712 47.3286 29.265 47.2897 27.7589 47.2507H27.7561Z" fill="#432818"/>
<path d="M14.3836 47.7156C14.342 46.9807 14.3005 46.2458 14.259 45.5083C12.7307 45.4304 11.2052 45.3525 9.67688 45.2772C9.73779 46.1289 9.80147 46.9807 9.86238 47.8324C11.3685 47.7935 12.8747 47.7545 14.3808 47.7156H14.3836Z" fill="#432818"/>
</svg>
